# xmcd CD database file
#
# Track frame offsets:
#	150
#	27257
#	42360
#	63125
#	82895
#	102160
#	126462
#	143980
#	166950
#
# Disc length: 2729 seconds
#
# Revision: 8
# Processed by: cddbd v1.5.2PL0 Copyright (c) Steve Scherf et al.
# Submitted via: CDex 1.70beta2
#
DISCID=720aa709
DTITLE=Dokken - BEAST FROM THE EAST [Disc 1]
DYEAR=1988
DGENRE=Heavy Metal
TTITLE0=Unchain The Night
TTITLE1=Tooth And Nail
TTITLE2=Standing In The Shadows
TTITLE3=Sleepless Nights
TTITLE4=Dream Warriors
TTITLE5=Kiss Of Death
TTITLE6=When Heaven Comes Down
TTITLE7=Into The Fire
TTITLE8=Mr. Scary
EXTD=YEAR: 1988
EXTT0=
EXTT1=
EXTT2=
EXTT3=
EXTT4=
EXTT5=
EXTT6=
EXTT7=
EXTT8=
PLAYORDER=
